<?xml version="1.0" standalone="no"?><!DOCTYPE svg PUBLIC "-//W3C//DTD SVG 1.1//EN" "http://www.w3.org/Graphics/SVG/1.1/DTD/svg11.dtd"><svg t="1623736233531" class="icon" viewBox="0 0 1024 1024" version="1.1" xmlns="http://www.w3.org/2000/svg" p-id="30062" xmlns:xlink="http://www.w3.org/1999/xlink" width="64" height="64"><defs><style type="text/css"></style></defs><path d="M512 256C251.733333 256 42.666667 475.733333 42.666667 746.666667c0 12.8 8.533333 21.333333 21.333333 21.333333l384 0c12.8 0 21.333333-8.533333 21.333333-21.333333 0-36.266667 19.2-64 42.666667-64s42.666667 27.733333 42.666667 64c0 12.8 8.533333 21.333333 21.333333 21.333333l384 0c12.8 0 21.333333-8.533333 21.333333-21.333333C981.333333 475.733333 772.266667 256 512 256zM595.2 725.333333c-8.533333-49.066667-42.666667-85.333333-83.2-85.333333s-74.666667 36.266667-83.2 85.333333l-85.333333 0c8.533333-96 81.066667-170.666667 168.533333-170.666667s160 74.666667 168.533333 170.666667L595.2 725.333333zM725.333333 725.333333c-10.666667-119.466667-100.266667-213.333333-213.333333-213.333333s-202.666667 93.866667-213.333333 213.333333l-85.333333 0c10.666667-166.4 138.666667-298.666667 298.666667-298.666667s288 132.266667 298.666667 298.666667L725.333333 725.333333zM853.333333 725.333333c-10.666667-189.866667-157.866667-341.333333-341.333333-341.333333S181.333333 535.466667 170.666667 725.333333L85.333333 725.333333c10.666667-236.8 196.266667-426.666667 426.666667-426.666667s416 189.866667 426.666667 426.666667L853.333333 725.333333z" p-id="30063"></path></svg>