<?xml version="1.0" standalone="no"?><!DOCTYPE svg PUBLIC "-//W3C//DTD SVG 1.1//EN" "http://www.w3.org/Graphics/SVG/1.1/DTD/svg11.dtd"><svg t="1623730711408" class="icon" viewBox="0 0 1024 1024" version="1.1" xmlns="http://www.w3.org/2000/svg" p-id="25714" xmlns:xlink="http://www.w3.org/1999/xlink" width="64" height="64"><defs><style type="text/css"></style></defs><path d="M512 566.4256m-385.3312 0a385.3312 385.3312 0 1 0 770.6624 0 385.3312 385.3312 0 1 0-770.6624 0Z" fill="#F76C69" p-id="25715"></path><path d="M291.584 684.9536c-81.5616-165.632-58.4704-324.096-36.7616-405.4016-78.6432 70.5536-128.1536 172.9024-128.1536 286.8736 0 212.8384 172.544 385.3312 385.3312 385.3312 121.6 0 229.9904-56.3712 300.5952-144.384-79.9232 40.5504-150.1696 57.9072-210.0736 61.5424-130.9696 7.936-252.9792-66.2528-310.9376-183.9616z" fill="#EA5959" p-id="25716"></path><path d="M512 967.1168c-201.1648 0-372.0704-150.272-397.4656-349.5424a15.38048 15.38048 0 0 1 30.5152-3.8912c23.4496 183.9616 181.248 322.7136 367.0016 322.7136 203.9808 0 369.9712-165.9904 369.9712-369.9712S715.9808 196.4544 512 196.4544c-186.1632 0-344.0128 139.1104-367.104 323.5328a15.34976 15.34976 0 1 1-30.464-3.84C139.4176 316.416 310.3744 165.7344 512 165.7344c220.928 0 400.6912 179.7632 400.6912 400.6912s-179.7632 400.6912-400.6912 400.6912z" fill="#000F04" p-id="25717"></path><path d="M569.1904 191.232s-32.9728-106.496-228.1472-57.0368c1.28 54.528 90.0096 102.656 90.0096 102.656s-60.0576 32.9728-102.912 121.7024c43.3152 21.5552 171.3152 43.1104 222.0544-24.064 44.3392 59.5968 103.936 81.1008 164.7616 97.5872 20.2752-88.7296-8.8576-158.464-32.9728-173.6704 67.1744-25.344 98.8672-86.1696 98.8672-86.1696s-124.2112-82.3808-211.6608 18.9952z" fill="#BFE5BD" p-id="25718"></path><path d="M550.144 334.4896c44.3392 59.5968 103.936 81.1008 164.7616 97.5872 0 0-123.2896-109.2608-149.248-189.184 15.2064 3.7888 78.592 21.5552 116.2752 15.5136 67.1744-25.344 98.8672-86.1696 98.8672-86.1696s-155.6992 89.4976-205.3632 57.0368c-0.6656-1.3312-1.28-2.5088-1.8944-3.6864-4.5568 4.1984-0.0512-39.4752-4.4544-34.3552 0 0-13.9776 43.0592-26.0096 29.1328-33.792 9.3696-116.6336-12.032-202.1888-86.1696 1.28 54.528 90.0096 102.656 90.0096 102.656l109.4656 9.8304s-62.208 96.256-212.3776 111.872c43.4688 21.5552 171.4688 43.1104 222.1568-24.064z" fill="#A2DD9E" p-id="25719"></path><path d="M714.9568 447.4368c-1.3312 0-2.7136-0.1536-3.9936-0.512-53.76-14.5408-114.3296-34.6624-161.4848-88.832-62.976 58.1632-185.856 35.2768-228.1472 14.2336a15.32416 15.32416 0 0 1-6.9632-20.4288c29.2352-60.4672 66.048-96.256 88.6784-114.176-28.8256-19.2-76.2368-57.7024-77.312-103.168-0.1536-7.168 4.6592-13.4656 11.5712-15.2576 21.248-5.376 41.6768-9.216 60.7232-11.3664 8.3968-1.024 16.0256 5.12 16.9984 13.5168a15.36 15.36 0 0 1-13.5168 16.9984c-13.568 1.536-28.0064 3.9936-42.9568 7.3728 10.8032 33.5872 59.7504 66.6112 79.872 77.568 4.9152 2.6624 8.0384 7.8336 8.0384 13.4656 0 5.632-3.0208 10.8032-7.9872 13.5168-0.4608 0.256-49.92 28.4672-89.0368 100.4032 49.408 17.2032 149.248 26.5216 188.5184-25.5488 2.9184-3.84 7.424-6.0928 12.2368-6.0928h0.0512c4.8128 0 9.3696 2.304 12.288 6.1952 38.656 51.8656 89.856 72.8064 140.5952 87.5008 12.9024-77.9776-14.7968-132.2496-29.2864-141.4144-4.9152-3.1232-7.68-8.7552-7.0656-14.5408 0.6144-5.7856 4.4032-10.752 9.8304-12.8 43.0592-16.2304 70.4-48.64 82.8416-66.4576-32-16.5376-115.8144-49.0496-178.5856 23.7056-3.6352 4.2496-9.3184 6.144-14.7456 5.0176a15.29344 15.29344 0 0 1-11.52-10.496c-0.6144-1.8944-17.6128-50.3808-97.0752-58.2656a15.34976 15.34976 0 0 1-13.7728-16.7936 15.31392 15.31392 0 0 1 16.7936-13.7728c65.5872 6.4512 97.6896 37.12 112.384 58.4704 93.7472-85.6576 215.2448-6.8608 216.5248-6.0416a15.36 15.36 0 0 1 5.12 19.9168c-1.28 2.4064-28.7232 54.1184-86.4256 84.224 22.784 32.512 39.0656 96.6656 21.8624 171.9808-0.9216 4.096-3.4816 7.5776-7.0656 9.728-2.5088 1.4336-5.2224 2.1504-7.9872 2.1504z" fill="#000F04" p-id="25720"></path><path d="M580.9152 67.9936l46.592 34.2016s-51.3536 68.4544-46.592 144.4864c-28.5184 15.2064-44.8512-3.7888-44.8512-3.7888s-8.3968-130.2528 44.8512-174.8992z" fill="#A2DD9E" p-id="25721"></path><path d="M559.616 267.9296c-16.9984 0-29.6448-8.448-35.2256-15.0016a15.36 15.36 0 0 1-3.6864-9.0112c-0.3584-5.632-8.192-138.5472 50.3296-187.648 5.4272-4.5568 13.2608-4.8128 18.9952-0.6144l46.592 34.2016a15.3088 15.3088 0 0 1 6.0928 10.1376c0.6144 4.0448-0.4608 8.192-2.9184 11.4688-0.4608 0.6144-47.872 65.024-43.52 134.3488 0.3584 5.9904-2.7648 11.6736-8.0896 14.4896-10.4448 5.4784-20.0704 7.6288-28.5696 7.6288z m-8.5504-32.6656c2.9184 1.4848 7.6288 2.816 14.1824 1.1776 0.0512-57.088 26.9824-107.7248 41.3184-130.6112l-24.0128-17.664c-28.9792 35.8912-32.8192 111.7696-31.488 147.0976zM683.3152 807.5264c-4.5056 0-8.96-1.9968-12.032-5.7856a15.42656 15.42656 0 0 1 2.4064-21.6064c61.184-48.8448 88.3712-122.0608 100.4544-174.848a15.39072 15.39072 0 0 1 18.3808-11.5712c8.2944 1.8944 13.4656 10.1376 11.5712 18.3808-13.1584 57.6-43.1616 137.6768-111.2576 192.0512-2.7648 2.304-6.144 3.3792-9.5232 3.3792zM798.5664 565.1968c-0.4608 0-0.9216 0-1.3824-0.0512a15.38048 15.38048 0 0 1-13.9264-16.6912c0.9728-10.5472 1.024-16.8448 1.024-16.896a15.36 15.36 0 0 1 15.36-15.1552h0.2048c8.4992 0.1024 15.2576 7.0656 15.1552 15.5136 0 0.3072-0.1024 7.3728-1.1776 19.2512a15.27808 15.27808 0 0 1-15.2576 14.0288z" fill="#000F04" p-id="25722"></path></svg>