<?xml version="1.0" standalone="no"?><!DOCTYPE svg PUBLIC "-//W3C//DTD SVG 1.1//EN" "http://www.w3.org/Graphics/SVG/1.1/DTD/svg11.dtd"><svg t="1623730738438" class="icon" viewBox="0 0 1024 1024" version="1.1" xmlns="http://www.w3.org/2000/svg" p-id="26035" xmlns:xlink="http://www.w3.org/1999/xlink" width="64" height="64"><defs><style type="text/css"></style></defs><path d="M528.308 918.855c-105.823 0-204.508-38.379-277.876-108.064-74.455-70.72-115.459-167.133-115.459-271.484 0-67.56 14.393-127.129 42.778-177.051 28.037-49.31 69.232-88.446 122.44-116.321 6.745-3.534 15.076-0.931 18.608 5.814 3.533 6.744 0.93 15.075-5.814 18.608-98.42 51.56-150.441 144.561-150.441 268.949 0 197.37 160.663 351.977 365.764 351.977s365.765-154.607 365.765-351.977c0-149.896-68.543-247.447-203.724-289.945-7.263-2.283-11.3-10.022-9.017-17.285 2.283-7.264 10.027-11.302 17.286-9.016 145.906 45.869 223.027 155.225 223.027 316.247 0 104.351-41.004 200.767-115.459 271.485-73.368 69.686-172.053 108.063-277.878 108.063z" fill="#070001" p-id="26036"></path><path d="M391.493 402.423a6.893 6.893 0 0 1-6.765-8.209l26.58-136.65-140.78-0.414a6.892 6.892 0 0 1-5.108-11.499c62.847-69.962 180.608-72.405 185.59-72.475l0.098-0.001a6.892 6.892 0 0 1 0.097 13.785c-1.088 0.016-102.871 2.178-163.993 56.453l132.473 0.389a6.893 6.893 0 0 1 6.746 8.209L402.119 377.01l118.698-104.373a6.893 6.893 0 0 1 8.729-0.306l121.769 92.781-23.439-120.097a6.892 6.892 0 0 1 5.086-8.006l96.528-24.238c-24.973-13.695-85.005-39.293-178.376-34.477-3.8 0.216-7.042-2.725-7.239-6.527a6.892 6.892 0 0 1 6.528-7.239c131.148-6.798 197.975 43.364 200.755 45.502a6.892 6.892 0 0 1-2.524 12.148l-105.976 26.611 25.659 131.469a6.892 6.892 0 0 1-10.942 6.803L525.681 286.717l-129.635 113.99a6.885 6.885 0 0 1-4.553 1.716z" fill="#070001" p-id="26037"></path><path d="M534.087 226.851a6.893 6.893 0 0 1-6.893-6.893c0-39.106-26.565-119.305-36.068-146.739a8806.548 8806.548 0 0 0-20.217 17.639c16.28 40.583 16.475 125.364 16.475 129.1a6.893 6.893 0 0 1-13.785 0.001c0-0.922-0.207-92.6-17.239-127.973a6.893 6.893 0 0 1 1.671-8.177c12.818-11.216 21.996-19.221 27.277-23.792a535.124 535.124 0 0 1 3.835-3.298c5.527-4.678 9.715-0.504 10.175-0.013a6.847 6.847 0 0 1 1.562 2.712c2.92 8.058 40.099 111.649 40.099 160.541a6.892 6.892 0 0 1-6.892 6.892zM274.69 565.006a6.883 6.883 0 0 1-5.571-2.827c-30.21-41.363-28.563-80.075-21.861-105.266 7.232-27.186 21.536-44.491 22.141-45.214a6.893 6.893 0 0 1 10.58 8.839c-0.193 0.232-13.193 16.119-19.537 40.448-8.409 32.241-1.744 63.551 19.81 93.062a6.892 6.892 0 0 1-5.562 10.958z" fill="#070001" p-id="26038"></path></svg>